<?xml version="1.0" standalone="no"?>
<!DOCTYPE svg PUBLIC "-//W3C//DTD SVG 20010904//EN"
 "http://www.w3.org/TR/2001/REC-SVG-20010904/DTD/svg10.dtd">
<svg version="1.0" xmlns="http://www.w3.org/2000/svg"
 width="586.000000pt" height="371.000000pt" viewBox="0 0 586.000000 371.000000"
 preserveAspectRatio="xMidYMid meet">
<metadata>
Created by potrace 1.16, written by Peter Selinger 2001-2019
</metadata>
<g transform="translate(0.000000,371.000000) scale(0.100000,-0.100000)"
fill="#000000" stroke="none">
<path d="M0 1855 l0 -1855 2930 0 2930 0 0 1855 0 1855 -2930 0 -2930 0 0
-1855z m4807 1339 c-3 -3 -12 -4 -19 -1 -8 3 -5 6 6 6 11 1 17 -2 13 -5z
m-1047 -197 c0 -2 -10 -12 -22 -23 l-23 -19 19 23 c18 21 26 27 26 19z m-50
-50 c0 -1 -33 -34 -72 -72 l-73 -70 70 73 c64 67 75 77 75 69z m-972 -154
c-131 -2 -345 -2 -475 0 -131 1 -24 2 237 2 261 0 368 -1 238 -2z m1469 -2229
c-3 -3 -12 -4 -19 -1 -8 3 -5 6 6 6 11 1 17 -2 13 -5z m225 -1 c-40 -2 -103
-2 -140 0 -37 2 -4 3 73 3 77 0 107 -2 67 -3z"/>
</g>
</svg>
